{"title":"Raja Natwarlal (2014) DvDScr Rip 1CD 700MB [SumoMan]","uid":10921086,"size":723199482,"categoryP":"video","categoryS":"movies_dvdr","magnet":"?xt=urn:btih:4329a2ce3a753c79729805795d398bbe4a7ac427&amp;dn=Raja+Natwarlal+%282014%29+DvDScr+Rip+1CD+700MB+%5BSumoMan%5D&amp;tr=udp%3A%2F%2Ftracker.openbittorrent.com%3A80&amp;tr=udp%3A%2F%2Fopen.demonii.com%3A1337&amp;tr=udp%3A%2F%2Ftracker.coppersurfer.tk%3A6969&amp;tr=udp%3A%2F%2Fexodus.desync.com%3A6969","seeders":1,"leechers":0,"uploader":"inovai","files":2,"time":1409330811,"description":"Cover:\n &lt;a href=&quot;\nhttp://forum.primetimeshow.in/viewtopic.php?f=7&amp;t=617&quot; rel=&quot;nofollow&quot; target=&quot;_NEW&quot;&gt;\nhttp://forum.primetimeshow.in/viewtopic.php?f=7&amp;t=617&lt;/a&gt;\n\nScreenshots:\n &lt;a href=&quot;\nhttp://img.primetimeshow.in/share.php?id=B2E9_540091CA&quot; rel=&quot;nofollow&quot; target=&quot;_NEW&quot;&gt;\nhttp://img.primetimeshow.in/share.php?id=B2E9_540091CA&lt;/a&gt;\n &lt;a href=&quot;\nhttp://img.primetimeshow.in/share.php?id=0AFA_540091CA&quot; rel=&quot;nofollow&quot; target=&quot;_NEW&quot;&gt;\nhttp://img.primetimeshow.in/share.php?id=0AFA_540091CA&lt;/a&gt;\n &lt;a href=&quot;\nhttp://img.primetimeshow.in/share.php?id=B804_540091CA&quot; rel=&quot;nofollow&quot; target=&quot;_NEW&quot;&gt;\nhttp://img.primetimeshow.in/share.php?id=B804_540091CA&lt;/a&gt;\n &lt;a href=&quot;\nhttp://img.primetimeshow.in/share.php?id=0127_540091CA&quot; rel=&quot;nofollow&quot; target=&quot;_NEW&quot;&gt;\nhttp://img.primetimeshow.in/share.php?id=0127_540091CA&lt;/a&gt;\n &lt;a href=&quot;\nhttp://img.primetimeshow.in/share.php?id=FA57_540091CA&quot; rel=&quot;nofollow&quot; target=&quot;_NEW&quot;&gt;\nhttp://img.primetimeshow.in/share.php?id=FA57_540091CA&lt;/a&gt;\n\nGeneral info:\n\nFormat version : Version 4 / Version 2\nFile size : 686 MiB\nDuration : 2h 16mn\nOverall bit rate : 702 Kbps\nMovie name : Raja Natwarlal (2014) DvDScr Rip 1CD 700MB [SumoMan]\n\n\nVideo\nID : 1\nFormat : MPEG-4 Visual\nFormat profile : Advanced Simple@L5\nFormat settings, BVOP : Yes\nFormat settings, QPel : No\nFormat settings, GMC : No warppoints\nFormat settings, Matrix : Default (H.263)\nCodec ID : V_MS/VFW/FOURCC / XVID\nCodec ID/Hint : XviD\nDuration : 2h 16mn\nBit rate : 560 Kbps\nWidth : 640 pixels\nHeight : 272 pixels\nDisplay aspect ratio : 2.35:1\nFrame rate mode : Constant\nFrame rate : 29.970 fps\nColor space : YUV\nChroma subsampling : 4:2:0\nBit depth : 8 bits\nScan type : Progressive\nCompression mode : Lossy\nBits/(Pixel*Frame) : 0.107\nStream size : 547 MiB (80%)\nWriting library : XviD 1.2.1 (UTC 2008-12-04)\nDefault : Yes\nForced : No\n\nAudio\nID : 2\nFormat : MPEG Audio\nFormat version : Version 1\nFormat profile : Layer 3\nMode : Joint stereo\nMode extension : MS Stereo\nCodec ID : A_MPEG/L3\nCodec ID/Hint : MP3\nDuration : 2h 16mn\nBit rate mode : Constant\nBit rate : 128 Kbps\nChannel(s) : 2 channels\nSampling rate : 48.0 KHz\nCompression mode : Lossy\nStream size : 125 MiB (18%)\nWriting library : LAME3.99r\nEncoding settings : -m j -V 4 -q 2 -lowpass 17 -b 128\nDefault : Yes\nForced : No\n\nSeeding From High Speed Server\nThank You IcTv For Untouched Source and Sumoman for encoding!!\n","torrent":{"xt":"urn:btih:4329a2ce3a753c79729805795d398bbe4a7ac427","amp;dn":"Raja+Natwarlal+%282014%29+DvDScr+Rip+1CD+700MB+%5BSumoMan%5D","amp;tr":["udp%3A%2F%2Ftracker.openbittorrent.com%3A80","udp%3A%2F%2Fopen.demonii.com%3A1337","udp%3A%2F%2Ftracker.coppersurfer.tk%3A6969","udp%3A%2F%2Fexodus.desync.com%3A6969"],"infoHash":"4329a2ce3a753c79729805795d398bbe4a7ac427","infoHashBuffer":{"type":"Buffer","data":[67,41,162,206,58,117,60,121,114,152,5,121,93,57,139,190,74,122,196,39]},"announce":[],"urlList":[]}}